<mxfile host="app.diagrams.net" modified="2021-09-08T09:58:50.262Z" agent="5.0 (Macintosh; Intel Mac OS X 10_15_7) AppleWebKit/537.36 (KHTML, like Gecko) Chrome/91.0.4472.164 Safari/537.36" etag="WSTOc2P5JOkqzjp-TCnr" version="15.1.1" type="github">
  <diagram id="prtHgNgQTEPvFCAcTncT" name="Page-1">
    <mxGraphModel dx="946" dy="466" grid="1" gridSize="10" guides="1" tooltips="1" connect="1" arrows="1" fold="1" page="1" pageScale="1" pageWidth="827" pageHeight="1169" math="0" shadow="0">
      <root>
        <mxCell id="0" />
        <mxCell id="1" parent="0" />
        <mxCell id="ruGqB_70xVyTq9whQmW1-1" value="Protocol/&lt;br&gt;Scheme" style="rounded=1;whiteSpace=wrap;html=1;" vertex="1" parent="1">
          <mxGeometry x="20" y="160" width="120" height="60" as="geometry" />
        </mxCell>
        <mxCell id="ruGqB_70xVyTq9whQmW1-4" value=":" style="rounded=0;whiteSpace=wrap;html=1;" vertex="1" parent="1">
          <mxGeometry x="160" y="170" width="20" height="40" as="geometry" />
        </mxCell>
        <mxCell id="ruGqB_70xVyTq9whQmW1-8" value="//" style="rounded=0;whiteSpace=wrap;html=1;" vertex="1" parent="1">
          <mxGeometry x="200" y="170" width="20" height="40" as="geometry" />
        </mxCell>
        <mxCell id="ruGqB_70xVyTq9whQmW1-9" value="" style="endArrow=classic;html=1;entryX=0;entryY=0.5;entryDx=0;entryDy=0;exitX=1;exitY=0.5;exitDx=0;exitDy=0;" edge="1" parent="1" source="ruGqB_70xVyTq9whQmW1-1" target="ruGqB_70xVyTq9whQmW1-4">
          <mxGeometry width="50" height="50" relative="1" as="geometry">
            <mxPoint x="390" y="220" as="sourcePoint" />
            <mxPoint x="440" y="170" as="targetPoint" />
          </mxGeometry>
        </mxCell>
        <mxCell id="ruGqB_70xVyTq9whQmW1-10" value="" style="endArrow=classic;html=1;exitX=1;exitY=0.5;exitDx=0;exitDy=0;" edge="1" parent="1" source="ruGqB_70xVyTq9whQmW1-4">
          <mxGeometry width="50" height="50" relative="1" as="geometry">
            <mxPoint x="390" y="220" as="sourcePoint" />
            <mxPoint x="200" y="190" as="targetPoint" />
          </mxGeometry>
        </mxCell>
        <mxCell id="ruGqB_70xVyTq9whQmW1-21" style="edgeStyle=orthogonalEdgeStyle;rounded=0;orthogonalLoop=1;jettySize=auto;html=1;exitX=1;exitY=0.5;exitDx=0;exitDy=0;entryX=0;entryY=0.5;entryDx=0;entryDy=0;" edge="1" parent="1" source="ruGqB_70xVyTq9whQmW1-11" target="ruGqB_70xVyTq9whQmW1-13">
          <mxGeometry relative="1" as="geometry" />
        </mxCell>
        <mxCell id="ruGqB_70xVyTq9whQmW1-11" value="Subdomain&amp;nbsp;" style="rounded=1;whiteSpace=wrap;html=1;" vertex="1" parent="1">
          <mxGeometry x="240" y="160" width="80" height="60" as="geometry" />
        </mxCell>
        <mxCell id="ruGqB_70xVyTq9whQmW1-12" value="" style="endArrow=classic;html=1;exitX=1;exitY=0.5;exitDx=0;exitDy=0;entryX=0;entryY=0.5;entryDx=0;entryDy=0;" edge="1" parent="1" source="ruGqB_70xVyTq9whQmW1-8" target="ruGqB_70xVyTq9whQmW1-11">
          <mxGeometry width="50" height="50" relative="1" as="geometry">
            <mxPoint x="390" y="220" as="sourcePoint" />
            <mxPoint x="440" y="170" as="targetPoint" />
          </mxGeometry>
        </mxCell>
        <mxCell id="ruGqB_70xVyTq9whQmW1-22" style="edgeStyle=orthogonalEdgeStyle;rounded=0;orthogonalLoop=1;jettySize=auto;html=1;exitX=1;exitY=0.5;exitDx=0;exitDy=0;entryX=0;entryY=0.5;entryDx=0;entryDy=0;" edge="1" parent="1" source="ruGqB_70xVyTq9whQmW1-13" target="ruGqB_70xVyTq9whQmW1-15">
          <mxGeometry relative="1" as="geometry" />
        </mxCell>
        <mxCell id="ruGqB_70xVyTq9whQmW1-13" value="." style="rounded=0;whiteSpace=wrap;html=1;" vertex="1" parent="1">
          <mxGeometry x="340" y="170" width="20" height="40" as="geometry" />
        </mxCell>
        <mxCell id="ruGqB_70xVyTq9whQmW1-23" style="edgeStyle=orthogonalEdgeStyle;rounded=0;orthogonalLoop=1;jettySize=auto;html=1;exitX=1;exitY=0.5;exitDx=0;exitDy=0;entryX=0;entryY=0.5;entryDx=0;entryDy=0;" edge="1" parent="1" source="ruGqB_70xVyTq9whQmW1-15" target="ruGqB_70xVyTq9whQmW1-16">
          <mxGeometry relative="1" as="geometry" />
        </mxCell>
        <mxCell id="ruGqB_70xVyTq9whQmW1-15" value="Main&lt;br&gt;Domain" style="rounded=1;whiteSpace=wrap;html=1;" vertex="1" parent="1">
          <mxGeometry x="380" y="160" width="80" height="60" as="geometry" />
        </mxCell>
        <mxCell id="ruGqB_70xVyTq9whQmW1-24" style="edgeStyle=orthogonalEdgeStyle;rounded=0;orthogonalLoop=1;jettySize=auto;html=1;exitX=1;exitY=0.5;exitDx=0;exitDy=0;entryX=0;entryY=0.5;entryDx=0;entryDy=0;" edge="1" parent="1" source="ruGqB_70xVyTq9whQmW1-16" target="ruGqB_70xVyTq9whQmW1-17">
          <mxGeometry relative="1" as="geometry" />
        </mxCell>
        <mxCell id="ruGqB_70xVyTq9whQmW1-16" value="." style="rounded=0;whiteSpace=wrap;html=1;" vertex="1" parent="1">
          <mxGeometry x="480" y="170" width="20" height="40" as="geometry" />
        </mxCell>
        <mxCell id="ruGqB_70xVyTq9whQmW1-25" style="edgeStyle=orthogonalEdgeStyle;rounded=0;orthogonalLoop=1;jettySize=auto;html=1;exitX=1;exitY=0.5;exitDx=0;exitDy=0;entryX=0;entryY=0.5;entryDx=0;entryDy=0;" edge="1" parent="1" source="ruGqB_70xVyTq9whQmW1-17" target="ruGqB_70xVyTq9whQmW1-18">
          <mxGeometry relative="1" as="geometry" />
        </mxCell>
        <mxCell id="ruGqB_70xVyTq9whQmW1-17" value="TLD" style="rounded=1;whiteSpace=wrap;html=1;" vertex="1" parent="1">
          <mxGeometry x="520" y="160" width="80" height="60" as="geometry" />
        </mxCell>
        <mxCell id="ruGqB_70xVyTq9whQmW1-26" style="edgeStyle=orthogonalEdgeStyle;rounded=0;orthogonalLoop=1;jettySize=auto;html=1;exitX=1;exitY=0.5;exitDx=0;exitDy=0;entryX=0;entryY=0.5;entryDx=0;entryDy=0;" edge="1" parent="1" source="ruGqB_70xVyTq9whQmW1-18" target="ruGqB_70xVyTq9whQmW1-19">
          <mxGeometry relative="1" as="geometry" />
        </mxCell>
        <mxCell id="ruGqB_70xVyTq9whQmW1-18" value=":" style="rounded=0;whiteSpace=wrap;html=1;" vertex="1" parent="1">
          <mxGeometry x="620" y="170" width="20" height="40" as="geometry" />
        </mxCell>
        <mxCell id="ruGqB_70xVyTq9whQmW1-29" style="edgeStyle=orthogonalEdgeStyle;rounded=0;orthogonalLoop=1;jettySize=auto;html=1;exitX=1;exitY=0.5;exitDx=0;exitDy=0;entryX=0;entryY=0.5;entryDx=0;entryDy=0;" edge="1" parent="1" source="ruGqB_70xVyTq9whQmW1-19" target="ruGqB_70xVyTq9whQmW1-27">
          <mxGeometry relative="1" as="geometry" />
        </mxCell>
        <mxCell id="ruGqB_70xVyTq9whQmW1-19" value="Port" style="rounded=1;whiteSpace=wrap;html=1;" vertex="1" parent="1">
          <mxGeometry x="660" y="160" width="80" height="60" as="geometry" />
        </mxCell>
        <mxCell id="ruGqB_70xVyTq9whQmW1-30" style="edgeStyle=orthogonalEdgeStyle;rounded=0;orthogonalLoop=1;jettySize=auto;html=1;exitX=0.5;exitY=1;exitDx=0;exitDy=0;" edge="1" parent="1" source="ruGqB_70xVyTq9whQmW1-27">
          <mxGeometry relative="1" as="geometry">
            <mxPoint x="770" y="240" as="targetPoint" />
          </mxGeometry>
        </mxCell>
        <mxCell id="ruGqB_70xVyTq9whQmW1-27" value="/&lt;span style=&quot;color: rgba(0 , 0 , 0 , 0) ; font-family: monospace ; font-size: 0px&quot;&gt;%3CmxGraphModel%3E%3Croot%3E%3CmxCell%20id%3D%220%22%2F%3E%3CmxCell%20id%3D%221%22%20parent%3D%220%22%2F%3E%3CmxCell%20id%3D%222%22%20value%3D%22Port%22%20style%3D%22rounded%3D1%3BwhiteSpace%3Dwrap%3Bhtml%3D1%3B%22%20vertex%3D%221%22%20parent%3D%221%22%3E%3CmxGeometry%20x%3D%22660%22%20y%3D%22160%22%20width%3D%2280%22%20height%3D%2260%22%20as%3D%22geometry%22%2F%3E%3C%2FmxCell%3E%3C%2Froot%3E%3C%2FmxGraphModel%3E&lt;/span&gt;" style="rounded=0;whiteSpace=wrap;html=1;" vertex="1" parent="1">
          <mxGeometry x="760" y="170" width="20" height="40" as="geometry" />
        </mxCell>
        <mxCell id="ruGqB_70xVyTq9whQmW1-33" style="edgeStyle=orthogonalEdgeStyle;rounded=0;orthogonalLoop=1;jettySize=auto;html=1;exitX=0;exitY=0.5;exitDx=0;exitDy=0;entryX=1;entryY=0.5;entryDx=0;entryDy=0;" edge="1" parent="1" source="ruGqB_70xVyTq9whQmW1-31" target="ruGqB_70xVyTq9whQmW1-32">
          <mxGeometry relative="1" as="geometry" />
        </mxCell>
        <mxCell id="ruGqB_70xVyTq9whQmW1-31" value="Path" style="rounded=1;whiteSpace=wrap;html=1;" vertex="1" parent="1">
          <mxGeometry x="740" y="240" width="80" height="60" as="geometry" />
        </mxCell>
        <mxCell id="ruGqB_70xVyTq9whQmW1-35" style="edgeStyle=orthogonalEdgeStyle;rounded=0;orthogonalLoop=1;jettySize=auto;html=1;exitX=0;exitY=0.5;exitDx=0;exitDy=0;entryX=1;entryY=0.5;entryDx=0;entryDy=0;" edge="1" parent="1" source="ruGqB_70xVyTq9whQmW1-32" target="ruGqB_70xVyTq9whQmW1-34">
          <mxGeometry relative="1" as="geometry" />
        </mxCell>
        <mxCell id="ruGqB_70xVyTq9whQmW1-32" value="?" style="rounded=0;whiteSpace=wrap;html=1;" vertex="1" parent="1">
          <mxGeometry x="700" y="250" width="20" height="40" as="geometry" />
        </mxCell>
        <mxCell id="ruGqB_70xVyTq9whQmW1-37" style="edgeStyle=orthogonalEdgeStyle;rounded=0;orthogonalLoop=1;jettySize=auto;html=1;exitX=0;exitY=0.5;exitDx=0;exitDy=0;entryX=1;entryY=0.5;entryDx=0;entryDy=0;" edge="1" parent="1" source="ruGqB_70xVyTq9whQmW1-34" target="ruGqB_70xVyTq9whQmW1-36">
          <mxGeometry relative="1" as="geometry" />
        </mxCell>
        <mxCell id="ruGqB_70xVyTq9whQmW1-34" value="Parameters" style="rounded=1;whiteSpace=wrap;html=1;" vertex="1" parent="1">
          <mxGeometry x="600" y="240" width="80" height="60" as="geometry" />
        </mxCell>
        <mxCell id="ruGqB_70xVyTq9whQmW1-39" style="edgeStyle=orthogonalEdgeStyle;rounded=0;orthogonalLoop=1;jettySize=auto;html=1;exitX=0;exitY=0.5;exitDx=0;exitDy=0;entryX=1;entryY=0.5;entryDx=0;entryDy=0;" edge="1" parent="1" source="ruGqB_70xVyTq9whQmW1-36" target="ruGqB_70xVyTq9whQmW1-38">
          <mxGeometry relative="1" as="geometry" />
        </mxCell>
        <mxCell id="ruGqB_70xVyTq9whQmW1-36" value="#" style="rounded=0;whiteSpace=wrap;html=1;" vertex="1" parent="1">
          <mxGeometry x="560" y="250" width="20" height="40" as="geometry" />
        </mxCell>
        <mxCell id="ruGqB_70xVyTq9whQmW1-38" value="Fragment" style="rounded=1;whiteSpace=wrap;html=1;" vertex="1" parent="1">
          <mxGeometry x="460" y="240" width="80" height="60" as="geometry" />
        </mxCell>
      </root>
    </mxGraphModel>
  </diagram>
</mxfile>
